# xmcd
# 
# Track frame offsets:
#   150
#   21825
#   39103
#   56443
#   71555
#   86393
#   105363
#   120052
#   134993
#   152533
#   170057
# 
# Disc length: 2513 seconds
# 
# Revision: 1
# Processed by: cddbd v1.5.2PL0 Copyright (c) Steve Scherf et al.
# Submitted via: Synapstar 1.0 
# 
DISCID=8109cf0b
DTITLE=Craig Morgan - Greatest Hits
DYEAR=2008
DGENRE=Country
TTITLE0=Almost Home
TTITLE1=Redneck Yacht Club
TTITLE2=International Harvester
TTITLE3=That's What I Love About Sunday
TTITLE4=Tough
TTITLE5=Little Bit of Life
TTITLE6=I Love It
TTITLE7=I'm Country
TTITLE8=Every Friday Afternoon
TTITLE9=I Got You
TTITLE10=I Am
EXTD=YEAR: 2008 MediaType: Audio CD Producer: Broken Bow Records
EXTT0=
EXTT1=
EXTT2=
EXTT3=
EXTT4=
EXTT5=
EXTT6=
EXTT7=
EXTT8=
EXTT9=
EXTT10=
PLAYORDER=
